<?xml version="1.0" encoding="UTF-8" standalone="no"?>
<svg
   xmlns:dc="http://purl.org/dc/elements/1.1/"
   xmlns:cc="http://creativecommons.org/ns#"
   xmlns:rdf="http://www.w3.org/1999/02/22-rdf-syntax-ns#"
   xmlns:svg="http://www.w3.org/2000/svg"
   xmlns="http://www.w3.org/2000/svg"
   version="1.1"
   id="svg2"
   viewBox="0 0 430.008 300"
   height="264.13281486"
   width="378.597411507">
  <defs
     id="defs4" />
  <metadata
     id="metadata7">
    <rdf:RDF>
      <cc:Work
         rdf:about="">
        <dc:format>image/svg+xml</dc:format>
        <dc:type
           rdf:resource="http://purl.org/dc/dcmitype/StillImage" />
        <dc:title></dc:title>
      </cc:Work>
    </rdf:RDF>
  </metadata>
  <g
     transform="matrix(0.78956856,0,0,0.78956856,-15.951779,-142.69531)"
     id="layer1">
    <path
       d="m 544.36293,426.2711 -7.045,-21.82125 -2.61625,-0.41 -0.0488,-0.15375 12.23625,-11.5025 0.2225,-2.84625 c 0.76875,-9.80125 -1.025,-21.4825 -4.8,-31.24125 l -1.2375,-3.20375 -0.92,-0.35125 -61.04625,-24.1725 1.48125,-3.8 30.78875,12.54 22.36125,-5.6475 0.9075,-80.505 17.61,-4.4475 7.61125,-22.53875 -102.52125,-40.59625 -63.7475,16.095 -3.92875,11.62625 -8.27125,-4.8875 -46.11875,5.57 -13.2175,25.1875 -0.0312,2.725 -30.885,-12.48125 -51.5725,8.94125 -6.7725,13.73875 -11.39125,-4.51125 -32.0225,3.97625 -1.725,1.44625 c -7.72,6.47 -13.1125,13.2225 -17.23875,19.645 l -15.475,-6.96125 -46.1225,5.57 -9.4375,17.9875 -15.37375,-6.9675 -34.03875,3.99625 -1.96,2.04875 c -5.93125,6.20125 -10.5925,12.2 -13.85,17.8325 l -0.47625,0.82375 -0.2575,0.87 c -2.58,8.70375 -2.8025,18.97125 -2.34875,31.71125 l 0.1175,3.3075 29.23,11.48125 c 0.24875,3.68875 0.15125,7.67875 -0.28625,11.52 l -26.73875,2.61 -8.2725,23.96875 54.57625,21.37 -0.08875,7.905 -19.77875,-7.88 -22.56125,-2.06625 -12.7575,21.9125 12.745,4.60875 -0.86625,76.9425 102.5225,40.59625 22.36125,-5.64875 0.2,-17.7725 19.78125,7.88125 22.56875,1.8625 10.68625,-18.3375 17.57625,8.49 22.3575,-5.64875 0.2525,-22.22125 33.5075,13.70125 22.36125,-5.65 0.39125,-34.70125 49.43375,20.5275 37.98125,-7.09625 5.73,-16.74 18.17875,8.21625 40.04625,-7.50875 7.13,-18.3125 22.775,9.65625 22.62875,-5.71375 0.13625,-12.00875 12.8625,5.66 19.5725,-0.3025 13.05625,-22.2725 -16.1375,-5.62125 z"
       style="fill:#454442;fill-opacity:1;fill-rule:nonzero;stroke:none"
       id="path3432" />
    <path
       d="m 544.36293,426.2711 -7.045,-21.82125 -2.61625,-0.41 -0.0488,-0.15375 12.23625,-11.5025 0.2225,-2.84625 c 0.76875,-9.80125 -1.025,-21.4825 -4.8,-31.24125 l -1.2375,-3.20375 -0.92,-0.35125 -61.04625,-24.1725 1.48125,-3.8 30.78875,12.54 22.36125,-5.6475 0.9075,-80.505 17.61,-4.4475 7.61125,-22.53875 -102.52125,-40.59625 -63.7475,16.095 -3.92875,11.62625 -8.27125,-4.8875 -46.11875,5.57 -13.2175,25.1875 -0.0312,2.725 -30.885,-12.48125 -51.5725,8.94125 -6.7725,13.73875 -11.39125,-4.51125 -32.0225,3.97625 -1.725,1.44625 c -7.72,6.47 -13.1125,13.2225 -17.23875,19.645 l -15.475,-6.96125 -46.1225,5.57 -9.4375,17.9875 -15.37375,-6.9675 -34.03875,3.99625 -1.96,2.04875 c -5.93125,6.20125 -10.5925,12.2 -13.85,17.8325 l -0.47625,0.82375 -0.2575,0.87 c -2.58,8.70375 -2.8025,18.97125 -2.34875,31.71125 l 0.1175,3.3075 29.23,11.48125 c 0.24875,3.68875 0.15125,7.67875 -0.28625,11.52 l -26.73875,2.61 -8.2725,23.96875 54.57625,21.37 -0.08875,7.905 -19.77875,-7.88 -22.56125,-2.06625 -12.7575,21.9125 12.745,4.60875 -0.86625,76.9425 102.5225,40.59625 22.36125,-5.64875 0.2,-17.7725 19.78125,7.88125 22.56875,1.8625 10.68625,-18.3375 17.57625,8.49 22.3575,-5.64875 0.2525,-22.22125 33.5075,13.70125 22.36125,-5.65 0.39125,-34.70125 49.43375,20.5275 37.98125,-7.09625 5.73,-16.74 18.17875,8.21625 40.04625,-7.50875 7.13,-18.3125 22.775,9.65625 22.62875,-5.71375 0.13625,-12.00875 12.8625,5.66 19.5725,-0.3025 13.05625,-22.2725 -16.1375,-5.62125 z"
       style="fill:none;stroke:#454442;stroke-width:10;stroke-linecap:butt;stroke-linejoin:bevel;stroke-miterlimit:10;stroke-dasharray:none;stroke-opacity:1"
       id="path3436" />
    <path
       d="m 33.250803,368.39735 -8.27375,23.96875 38.235,-4.57125 2.0425,-2.465 c 2.99625,-3.62 8.63625,-10.82875 12.76,-18.4525 l 0.435,-0.8025 0.2275,-0.84375 c 2.875,-10.6075 3.35875,-21.94 1.47875,-34.64125 l -0.4275,-2.89125 -27.80875,-6.68875 c -0.15875,-3.285 -0.1475,-8.04125 0.66625,-13.21125 l 21.58875,-2.25375 9.685,-23.35 -34.03875,3.99625 -1.96,2.04875 c -5.93125,6.20125 -10.5925,12.20125 -13.85,17.8325 l -0.47625,0.82375 -0.2575,0.87 c -2.58,8.70375 -2.8025,18.97125 -2.34875,31.7125 l 0.1175,3.3075 28.85625,7.84 c 0.65,4.59875 0.67375,10.01375 0.08625,15.16 l -26.7375,2.61125 z"
       style="fill:#ffffff;fill-opacity:1;fill-rule:nonzero;stroke:none"
       id="path3440" />
    <path
       d="m 95.453303,296.36423 -0.77125,68.34125 7.474997,9.92875 40.0425,-7.50125 9.3025,-23.86625 -34.3575,6.34375 0.235,-20.7675 23.35625,-5.8975 0.21875,-18.9275 -23.35875,5.89875 0.2,-17.54625 24.5925,-2.94875 12.405,-23.81625 -46.1225,5.57 -13.217497,25.18875 z"
       style="fill:#ffffff;fill-opacity:1;fill-rule:nonzero;stroke:none"
       id="path3444" />
    <path
       d="m 169.59793,355.72047 40.35375,-5.19875 9.65,-24.28 -31.50875,4.575 0.0913,-0.44625 -0.41625,-1.30875 c -3.3975,-10.705 -4.98625,-21.60625 -4.8575,-33.32125 0.14375,-12.60125 2.4025,-19.3375 4.5925,-21.73625 l 23.0875,-2.69625 10.66375,-23.80875 -32.0225,3.97625 -1.725,1.44625 c -11.795,9.88625 -18.1775,20.435 -22.8675,29.45 l -0.5525,1.06875 -0.19,1.10875 c -1.8425,10.835 -2.6975,18.67375 -2.77625,25.41875 -0.185,16.42375 2.19,30.4225 7.26375,42.79875 l 1.21375,2.95375 z"
       style="fill:#ffffff;fill-opacity:1;fill-rule:nonzero;stroke:none"
       id="path3456" />
    <path
       d="m 287.23443,278.69085 -2.8,-0.44125 12.37125,-11.6325 0.2225,-2.8425 c 0.76875,-9.80375 -1.025,-21.48375 -4.8,-31.2425 l -1.2375,-3.20125 -51.5725,8.94125 -11.33875,23.00125 15.00375,-2.55125 -0.9225,82.045 22.62875,-5.7125 0.42375,-37.69375 2.70875,0.475 9.87,30.86625 19.57,-0.3025 13.055,-22.26625 -14.28125,0.1225 -8.90125,-27.565 z m -21.78625,-2.11 0.24625,-21.90375 7.43,-1.17875 c 1.11875,3.86125 1.70875,8.2775 1.815,13.5425 l -9.49125,9.54 z"
       style="fill:#ffffff;fill-opacity:1;fill-rule:nonzero;stroke:none"
       id="path3460" />
    <path
       d="m 368.6528,309.85547 9.29875,-23.865 -34.35,6.3425 0.235,-20.76875 23.34875,-5.895 0.21875,-18.9275 -23.35625,5.8975 0.1975,-17.545 24.5925,-2.94875 12.405,-23.81625 -46.11875,5.57 -13.2175,25.1875 -0.77125,68.34125 7.475,9.93125 40.0425,-7.50375 z"
       style="fill:#ffffff;fill-opacity:1;fill-rule:nonzero;stroke:none"
       id="path3464" />
    <path
       d="m 408.70018,298.63385 22.36125,-5.6475 0.9075,-80.505 17.61,-4.4475 7.61125,-22.5375 -63.74625,16.095 -7.62,22.54 23.78375,-6.005 -0.9075,80.5075 z"
       style="fill:#ffffff;fill-opacity:1;fill-rule:nonzero;stroke:none"
       id="path3468" />
    <path
       d="m 102.0253,397.65048 -22.35375,5.645 -0.4575,40.6575 -19.925,5.03 0.3975,-35.2225 -22.5625,-2.06625 -12.75625,21.9125 12.7875,0.93125 -0.90875,80.62 22.36125,-5.64875 0.47625,-42.27625 19.925,-5.03 -0.41875,37.415 22.56875,1.86125 12.74875,-21.87625 -12.79375,-0.93375 0.91125,-81.01875 z"
       style="fill:#ffffff;fill-opacity:1;fill-rule:nonzero;stroke:none"
       id="path3472" />
    <path
       d="m 114.6188,410.65548 15.715,-0.1125 -0.9125,81.09 22.3575,-5.64875 1.10875,-97.7725 -25.2025,0.1475 -13.06625,22.29625 z"
       style="fill:#ffffff;fill-opacity:1;fill-rule:nonzero;stroke:none"
       id="path3476" />
    <path
       d="m 162.65905,402.9601 23.7875,-6.0075 -0.9075,80.51125 22.36,-5.65 0.90875,-80.50625 17.60625,-4.4475 7.615,-22.5375 -63.75125,16.095 -7.61875,22.5425 z"
       style="fill:#ffffff;fill-opacity:1;fill-rule:nonzero;stroke:none"
       id="path3480" />
    <path
       d="m 273.56093,357.68535 -22.70875,0.20125 -12.795,22.26125 12.95375,-0.11 -0.76125,67.67375 7.475,9.92875 37.98125,-7.095 8.1375,-23.77125 -31.13,5.83 0.8475,-74.91875 z"
       style="fill:#ffffff;fill-opacity:1;fill-rule:nonzero;stroke:none"
       id="path3484" />
    <path
       d="m 359.84318,356.80347 12.40375,-23.81375 -46.1175,5.5675 -13.2175,25.1875 -0.7725,68.33875 7.475,9.9375 40.0475,-7.50875 9.29125,-23.86625 -34.34625,6.34375 0.235,-20.76875 23.3475,-5.895 0.22,-18.92375 -23.35625,5.89625 0.19625,-17.54375 24.59375,-2.95125 z"
       style="fill:#ffffff;fill-opacity:1;fill-rule:nonzero;stroke:none"
       id="path3488" />
    <path
       d="m 443.54155,391.34622 -8.90125,-27.57125 -2.8,-0.4375 12.37125,-11.62875 0.2225,-2.84625 c 0.76875,-9.8 -1.025,-21.48125 -4.8,-31.24125 l -1.2375,-3.2025 -51.57375,8.94375 -11.345,22.99875 15.01125,-2.54875 -0.9225,82.0425 22.62875,-5.7125 0.42375,-37.6925 2.70125,0.475 9.87375,30.8675 19.57375,-0.3025 13.055,-22.2725 -14.28125,0.12875 z m -30.6875,-29.6775 0.24625,-21.90375 7.425,-1.18 c 1.12,3.86625 1.71,8.28375 1.81625,13.54875 l -9.4875,9.535 z"
       style="fill:#ffffff;fill-opacity:1;fill-rule:nonzero;stroke:none"
       id="path3500" />
  </g>
</svg>
